<svg width="32" height="32" viewBox="0 0 32 32" fill="none" xmlns="http://www.w3.org/2000/svg">
<path d="M8 2.66602L4 7.99935V26.666C4 27.3733 4.28095 28.0515 4.78105 28.5516C5.28115 29.0517 5.95942 29.3327 6.66667 29.3327H25.3333C26.0406 29.3327 26.7189 29.0517 27.219 28.5516C27.719 28.0515 28 27.3733 28 26.666V7.99935L24 2.66602H8Z" stroke="white" stroke-width="2" stroke-linecap="round" stroke-linejoin="round"/>
<path d="M4 8H28" stroke="white" stroke-width="2" stroke-linecap="round" stroke-linejoin="round"/>
<path d="M21.3333 13.334C21.3333 14.7485 20.7714 16.105 19.7712 17.1052C18.771 18.1054 17.4144 18.6673 16 18.6673C14.5855 18.6673 13.2289 18.1054 12.2287 17.1052C11.2285 16.105 10.6666 14.7485 10.6666 13.334" stroke="white" stroke-width="2" stroke-linecap="round" stroke-linejoin="round"/>
</svg>
